<svg width="127" height="37" xmlns="http://www.w3.org/2000/svg"><defs><linearGradient x1="115.738%" y1="-31.418%" x2="0%" y2="131.845%" id="a"><stop stop-color="#25FFB8" offset="0%"/><stop stop-color="#00A0FF" offset="100%"/></linearGradient></defs><g fill="none" fill-rule="evenodd"><g transform="translate(63 1)"><path d="M17.693 3.81c.647 0 1.235.059 1.764.353 7.526 1.117 10.877 7.526 10.877 13.64 0 8.056-6.114 13.935-14.287 13.935-7.115 0-13.347-5.292-13.347-13.111 0-8.761 5.703-14.7 14.993-14.817z" fill="url(#a)"/><circle fill="#50E3C2" cx="13.51" cy="1.904" r="1.096"/><circle fill="#1BE4CB" cx="27.266" cy="3.755" r="2.755"/><circle fill="#27DDD5" cx="3.434" cy="8.014" r="1.434"/><circle fill="#29C4ED" cx="2.053" cy="29.324" r="2.053"/><circle fill="#28C8E9" cx="20.918" cy="33.738" r="1.592"/></g><path d="M23.168 2.916c-.036 6.12-.18 16.884 0 21.528.036 2.16.9 2.88 2.232 2.772 1.332-.108 1.8-.648 1.836-1.8-.036-1.44-.072-16.38.036-22.176 0-1.512-.576-2.232-2.016-2.232-1.152 0-2.052.612-2.088 1.908zM35.048 19.8c.144 2.16 1.944 3.96 4.392 3.96a6.984 6.984 0 0 0 3.492-.972c.432-.252.864-.468 1.404-.468.864 0 1.656.9 1.656 1.872 0 .684-.432 1.224-1.08 1.656-1.332.864-3.024 1.44-5.796 1.44a8.044 8.044 0 0 1-8.064-7.92c0-5.04 3.6-9.108 8.28-9.108 4.212 0 7.272 3.312 7.272 6.624 0 1.872-.288 2.808-2.808 2.844-2.016.072-4.464.036-8.748.072zm4.356-6.336c-2.412 0-4.104 1.908-4.32 3.816 1.872 0 5.832-.036 7.344-.144.252-.036.432-.144.432-.324 0-1.98-1.656-3.348-3.456-3.348zm50.904 2.376c.036 5.292-.072 7.452-.072 9.612 0 1.332.864 1.728 1.98 1.728.9 0 1.98-.396 1.98-1.692l-.036-5.652c0-3.348.612-6.156 4.356-6.12 2.736 0 3.24 2.304 3.276 4.752 0 2.268-.108 4.86-.108 6.912 0 1.188.828 1.728 1.872 1.728 1.368 0 2.124-.576 2.124-2.016v-3.096c0-2.412.036-3.168.036-4.644 0-4.464-2.232-7.092-6.228-7.092-2.232 0-4.536 1.152-5.364 3.132l-.072-1.26c-.108-1.188-.54-1.764-1.764-1.764-1.548 0-2.052.828-2.016 2.304l.036 3.168zm36-13.104l-.072 8.316c0 2.52-.036 4.824-.036 7.416 0 1.512.072 3.24.072 7.02 0 1.188-.756 1.728-1.872 1.728-1.008 0-1.584-.54-1.728-1.368l-.144-1.62c-1.116 1.836-2.988 3.06-5.328 3.06-4.932 0-7.848-3.996-7.848-8.064 0-5.004 3.564-8.856 8.388-8.856 1.908 0 3.672.864 4.608 2.34l-.036-9.648c0-1.44.684-2.16 1.944-2.16 1.224 0 2.088.468 2.052 1.836zM113.312 19.08c0 2.592 1.944 4.752 4.428 4.752 2.556 0 4.68-1.872 4.68-5.004 0-3.132-1.944-5.04-4.428-5.04-2.592 0-4.68 2.124-4.68 5.292zM14.657 10.654c-2.016.036-3.96.072-6.3.072V8.494c.036-2.52 1.512-4.356 4.032-4.356 1.404 0 2.376.432 3.384.432.828 0 1.44-.936 1.476-1.692 0-.828-.468-1.368-1.188-1.656-.9-.396-1.944-.576-3.204-.576-5.796 0-8.1 3.744-8.28 8.712v1.368H2.525c-1.332 0-1.98.684-1.98 1.764.036 1.332.792 1.728 2.34 1.728l1.692-.036c-.036 4.14-.036 7.776-.036 11.304 0 1.296.756 1.764 1.98 1.764 1.188 0 1.908-.612 1.908-1.8 0-3.744-.036-7.704-.036-11.232 2.052 0 3.816-.036 5.796-.036h.864V25.45c0 1.404.936 1.872 1.98 1.836 1.296 0 1.908-.684 1.908-1.944 0-4.248-.036-8.064.036-12.312.036-1.404-.648-2.268-2.016-2.412-.288-.036-1.116-.036-2.304.036zM50.526 12.096c.036-1.296.864-1.8 1.98-1.8.936 0 1.548.396 1.692 1.296l.108 1.656c1.08-1.872 3.168-2.988 5.508-2.988 4.716 0 7.632 3.672 7.632 8.352 0 4.896-3.492 8.712-8.352 8.712-2.016 0-3.708-.792-4.716-2.196 0 .756.036 2.088.036 3.348 0 1.224.072 2.916.072 4.68 0 1.296-.684 1.944-2.196 1.908-1.152 0-1.764-.612-1.764-1.872l.036-14.148-.036-6.948zm12.96 6.444c0-2.844-2.052-4.824-4.392-4.824-2.556 0-4.716 2.088-4.716 5.148 0 3.204 1.764 5.004 4.428 5.004 2.628 0 4.68-2.196 4.68-5.328z" fill="#404247"/><path d="M80.22 10.224c.396 0 .756.036 1.08.216 4.608.684 6.66 4.608 6.66 8.352 0 4.932-3.744 8.532-8.748 8.532-4.356 0-8.172-3.24-8.172-8.028 0-5.364 3.492-9 9.18-9.072zm3.816 8.424c0-2.628-1.62-4.824-4.536-4.968-2.736.144-4.536 2.196-4.536 5.616 0 2.736 2.124 4.572 4.176 4.572 2.556 0 4.896-2.016 4.896-5.22z" fill="#FFF"/></g></svg>