<svg xmlns="http://www.w3.org/2000/svg" viewBox="0 0 64 64"><g id="Icon-/-Brand-/-ActBlue" transform="translate(8.000000, 8.000000)" fill="#00A9E0"><path d="M18.0179104,12.2910448 L28.0298507,35.5164179 L22.6164179,35.5164179 L22.6164179,35.5746269 L20.4626866,30.5104478 L10.6835821,30.5104478 L8.52985075,35.5164179 L3,35.5164179 L13.0119403,12.2910448 L18.0179104,12.2910448 Z M32.4537313,12.2910448 C34.0253731,12.2910448 35.3641791,12.5238806 36.5283582,12.8731343 C37.6343284,13.2223881 38.5074627,13.7462687 39.0895522,14.3865672 C40.1373134,15.6089552 40.661194,16.9477612 40.661194,18.461194 C40.661194,20.3238806 40.0791045,21.6626866 38.9149254,22.5358209 C38.5074627,22.8268657 38.2746269,23.0597015 38.1,23.1179104 C37.9835821,23.2343284 37.6925373,23.3507463 37.2850746,23.5253731 C38.7402985,23.8164179 39.8462687,24.4567164 40.719403,25.4462687 C41.5343284,26.4358209 42,27.658209 41.941791,29.1134328 C41.941791,30.7432836 41.3597015,32.1985075 40.2537313,33.4208955 C38.9731343,34.8761194 36.761194,35.5746269 33.5597015,35.5746269 L33.5597015,35.5746269 L29.7761194,35.5746269 L23.4313433,20.7895522 L23.4313433,12.2910448 Z M31.6970149,25.7955224 L28.6119403,25.7955224 L28.6119403,31.1507463 L32.2208955,31.1507463 C33.6761194,31.1507463 34.7820896,30.9761194 35.538806,30.6268657 C36.2373134,30.2776119 36.6447761,29.5208955 36.6447761,28.4731343 C36.6447761,27.3671642 36.2955224,26.6686567 35.480597,26.319403 C34.6656716,25.9701493 33.4432836,25.7955224 31.6970149,25.7955224 L31.6970149,25.7955224 Z M15.5731343,19.2179104 L12.6626866,25.9701493 L18.4835821,25.9701493 L15.5731343,19.2179104 Z M31.1149254,16.7149254 L28.6119403,16.7149254 L28.6119403,21.7791045 L31.1149254,21.7791045 C32.5701493,21.7791045 33.6179104,21.6044776 34.3164179,21.3134328 C35.0149254,20.9641791 35.3641791,20.3238806 35.3641791,19.2761194 C35.3641791,18.2283582 35.0149254,17.5880597 34.3746269,17.238806 C33.7343284,16.8895522 32.6283582,16.7149254 31.1149254,16.7149254 L31.1149254,16.7149254 Z"/></g></svg>
