<svg xmlns="http://www.w3.org/2000/svg" viewBox="0 0 152.5178 100.9742" width="152" height="100"><path d="M2.086.1482c-1.0584 0-1.9356.8792-1.9356 1.9375v91.088c0 1.058.8772 1.935 1.9355 1.935h26.039v-1.699H2.086c-.146 0-.2365-.09-.2365-.236V2.0857c0-.146.0904-.2384.2363-.2384h148.34c.15 0 .24.0924.24.2383v91.088c0 .146-.09.236-.24.236h-27.31v1.699h27.31c1.06 0 1.94-.877 1.94-1.935V2.0856c0-1.0584-.88-1.9376-1.94-1.9376H2.0858z" style="text-decoration-color:#000000;text-decoration-line:none;mix-blend-mode:normal;block-progression:tb;text-indent:0;text-decoration-style:solid;isolation:auto;text-transform:none" color="#000" solid-color="#000000" white-space="normal"/><path fill-rule="evenodd" d="M74.609 13.148c-27.615.323-35.206 4.34-36.553 7.961 1.105 48.525 19.234 54.527 35.468 55.553 10.25-.366 17.822-3.584 23.398-8.379 14.468-1.694 44.348-19.644 36.388-36.659-.9284-1.9827-1.7323-3.072-3.7728-5.0332-4.0257-4.003-11.017-2.0598-17.661.4844.0145-2.3483-.0528-4.505-.168-6.3265-.8502-5.6456-18.539-7.5475-37.094-7.6zm-.247 4.7086c2.6077-.0095 5.2118.036 7.7416.135 15.514.606 24.95 3.0565 21.088 5.4765l-.0363.0232c-1.5848.971-5.0902 1.7845-9.7072 2.374V24.531a1.6872 1.6872 0 0 0-1.7364-1.6854 1.6872 1.6872 0 0 0-.3098.038c-6.1104 1.3328-9.8424 1.1845-16.676 1.122a1.6872 1.6872 0 0 0-1.7035 1.6952l.0068 1.1763c-1.688-.018-3.384-.0517-5.0825-.1188-15.508-.612-24.905-3.0674-20.998-5.4863 3.18-1.9695 14.393-3.3664 27.413-3.4154zm15.712 8.5984V52.7l-5.3447-8.017a1.6872 1.6872 0 0 0-2.8074 0l-5.376 8.063-.14-25.377c4.9675.0495 8.9826-.0836 13.668-.9143zm31.619 5.8487c9.9282.3027 6.6555 20.71-16.17 24.804 3.283-6.423 4.9693-13.602 5.753-20.232 4.3015-3.3396 7.815-4.6512 10.417-4.572z"/><path d="M36.183 86.541q-.1738 0-.2896-.1158t-.1158-.2896V84.031q0-.1737.1158-.2895t.2896-.116h1.313q.1737 0 .2895.116t.1158.2896v2.1046q0 .1737-.1158.2896t-.2896.1158h-1.313zm.4634 12.356q-.4055 0-.695-.2703-.2704-.2896-.2704-.695V90.035h-1.564q-.1736 0-.2895-.1157t-.1158-.2896v-1.39q0-.174.1158-.2897t.2896-.1158h2.9154q.4055 0 .6758.2896.2896.2703.2896.6757v7.8965h1.564q.1736 0 .2895.1158t.1158.2896v1.39q0 .174-.1157.2897t-.2896.116h-2.9153zM43.202 98.897q-.1738 0-.2896-.1158t-.1158-.2896v-10.252q0-.1738.1158-.2896t.2896-.116h1.506q.1737 0 .2895.116t.1158.2896v.9074q.5406-.7337 1.2743-1.139.753-.425 1.641-.425 1.1006 0 1.9694.5214.8882.5213 1.39 1.448.502.9267.502 2.085v6.854q0 .1738-.1157.2896t-.2896.116h-1.506q-.1737 0-.2895-.116t-.116-.2896V91.927q0-1.0232-.5212-1.5638-.5212-.56-1.4673-.56-1.139 0-1.8148.753-.6565.7337-.6565 2.0273v5.908q0 .1736-.1158.2895t-.2896.1158h-1.5058zM56.839 98.897q-.1738 0-.2896-.1158t-.1158-.2896v-8.495h-1.5252q-.1738 0-.2896-.116t-.116-.2895v-1.3514q0-.1737.116-.2896t.2896-.1158h1.5252v-.6178q0-1.506.9267-2.4327.946-.9268 2.452-.9268h1.8148q.1738 0 .2897.1158t.1158.2896v1.313q0 .1736-.1158.2895t-.2896.1157h-1.834q-.4828 0-.7724.309-.2703.2895-.2703.7915v.753h2.4906q.1737 0 .2895.1158t.1158.2896v1.3515q0 .174-.1158.2897t-.2896.1158h-2.4907v8.495q0 .1738-.1158.2897t-.2896.1158h-1.506zM68.596 99.148q-1.1005 0-1.9886-.5213-.8688-.5213-1.3708-1.448t-.502-2.085v-6.854q0-.1737.116-.2896t.2895-.1157h1.506q.1737 0 .2896.1158t.1158.2897v6.5643q0 1.0233.5213 1.5832.5213.5406 1.4673.5406 1.139 0 1.7955-.7337.6757-.7528.6757-2.0464v-5.908q0-.1736.116-.2895t.2895-.1157h1.506q.1736 0 .2895.1158t.1158.2897v10.252q0 .1738-.1158.2896t-.2896.116h-1.506q-.1737 0-.2895-.116t-.1158-.2896v-.9074q-.5406.7337-1.2936 1.1584-.7336.4055-1.6218.4055zM80.709 99.148q-1.0426 0-2.008-.3282-.9652-.3282-1.7182-.9074-.0965-.0773-.135-.193-.0195-.1353.0192-.251.135-.309.6564-1.2164.1545-.2317.386-.2317.1353 0 .2704.0772.695.4827 1.2936.7144.618.2123 1.2936.2123.811 0 1.2356-.2896.4248-.309.4248-.8302 0-.444-.3668-.695t-1.39-.6372l-.6952-.2703q-.8495-.3282-1.448-.695-.5985-.3862-1.0233-1.0426-.4053-.6565-.4053-1.641 0-1.5253 1.004-2.4135 1.0233-.9076 2.703-.9076.9846 0 1.9307.3283.946.309 1.6604.8688.0965.0772.1158.2124.0386.1157 0 .2315-.1738.4055-.5792 1.2163-.1158.2124-.3668.2124-.1352 0-.2703-.0772-1.3322-.8688-2.4713-.8688-.6565 0-1.0426.2896-.367.2703-.367.7722t.425.8495q.4246.3283 1.5638.7723 1.1005.4248 1.699.7337.6178.2896 1.1198.946.5213.6372.5213 1.6604 0 1.004-.5213 1.776-.502.7724-1.4287 1.197-.9074.425-2.085.425zM89.665 86.541q-.1738 0-.2896-.1158t-.1158-.2896V84.031q0-.1737.1158-.2895t.2896-.116h1.313q.1737 0 .2895.116t.1158.2896v2.1046q0 .1737-.1158.2896t-.2896.1158h-1.313zm.4634 12.356q-.4055 0-.695-.2703-.2704-.2896-.2704-.695V90.035h-1.564q-.1737 0-.2895-.1157t-.1158-.2896v-1.39q0-.174.1158-.2897t.2896-.1158h2.9154q.4055 0 .6758.2896.2895.2703.2895.6757v7.8965h1.564q.1737 0 .2895.1158t.116.2896v1.39q0 .174-.116.2897t-.2896.116h-2.9152zM100.28 99.148q-1.255 0-2.3168-.5985-1.0426-.6178-1.6604-1.6604-.6178-1.0425-.6178-2.2588V92.101q0-1.2163.6178-2.259t1.6604-1.641q1.062-.6178 2.3168-.6178 1.255 0 2.2975.6178 1.062.5985 1.6797 1.641.6178 1.0427.6178 2.259v2.5292q0 1.2163-.6178 2.259t-1.6797 1.6603q-1.0426.5985-2.2975.5985zm0-2.2396q.946 0 1.6025-.6564.6757-.6758.6757-1.6218V92.101q0-.946-.6757-1.6025-.6564-.6758-1.6025-.6758-.946 0-1.6218.6758-.6564.6564-.6564 1.6025v2.5292q0 .946.6564 1.6218.6757.6564 1.6218.6564zM108.65 98.897q-.1738 0-.2896-.1158t-.1158-.2896v-10.252q0-.1738.1158-.2896t.2896-.116h1.506q.1737 0 .2895.116t.1158.2896v.9074q.5406-.7337 1.2743-1.139.753-.425 1.641-.425 1.1006 0 1.9694.5214.888.5213 1.39 1.448.502.9267.502 2.085v6.854q0 .1738-.1157.2896t-.2896.116h-1.506q-.1737 0-.2895-.116-.116-.1158-.116-.2896V91.927q0-1.0232-.521-1.5638-.5214-.56-1.4674-.56-1.139 0-1.8148.753-.6565.7337-.6565 2.0273v5.908q0 .1736-.1158.2895t-.2896.1158h-1.5058z"/></svg>
